<?xml version="1.0" encoding="UTF-8" standalone="no"?>
<!-- Created with Inkscape (http://www.inkscape.org/) -->

<svg
   xmlns:dc="http://purl.org/dc/elements/1.1/"
   xmlns:cc="http://creativecommons.org/ns#"
   xmlns:rdf="http://www.w3.org/1999/02/22-rdf-syntax-ns#"
   xmlns:svg="http://www.w3.org/2000/svg"
   xmlns="http://www.w3.org/2000/svg"
   xmlns:sodipodi="http://sodipodi.sourceforge.net/DTD/sodipodi-0.dtd"
   xmlns:inkscape="http://www.inkscape.org/namespaces/inkscape"
   id="svg2"
   version="1.1"
   inkscape:version="0.91 r13725"
   width="600"
   height="320"
   viewBox="0 0 600 320"
   sodipodi:docname="stem2.svg">
  <metadata
     id="metadata8">
    <rdf:RDF>
      <cc:Work
         rdf:about="">
        <dc:format>image/svg+xml</dc:format>
        <dc:type
           rdf:resource="http://purl.org/dc/dcmitype/StillImage" />
        <dc:title></dc:title>
      </cc:Work>
    </rdf:RDF>
  </metadata>
  <defs
     id="defs6" />
  <sodipodi:namedview
     pagecolor="#ffffff"
     bordercolor="#666666"
     borderopacity="1"
     objecttolerance="10"
     gridtolerance="10"
     guidetolerance="10"
     inkscape:pageopacity="0"
     inkscape:pageshadow="2"
     inkscape:window-width="1860"
     inkscape:window-height="1059"
     id="namedview4"
     showgrid="false"
     fit-margin-top="0"
     fit-margin-left="0"
     fit-margin-right="0"
     fit-margin-bottom="0"
     inkscape:zoom="1.6327684"
     inkscape:cx="269.81638"
     inkscape:cy="161.0806"
     inkscape:window-x="1980"
     inkscape:window-y="21"
     inkscape:window-maximized="1"
     inkscape:current-layer="svg2" />
  <path
     style="fill:#00ceff;fill-opacity:1"
     d="m 15.923876,15.218021 263.642574,0 0,50 -263.642574,0 z"
     id="rect4138" />
  <path
     style="fill:#00ceff;fill-opacity:1"
     d="m 17.61813,99.124596 263.64258,0 0,50.000004 -263.64258,0 z"
     id="rect4138-3" />
  <path
     style="fill:#00ceff;fill-opacity:1"
     d="m 16.969894,182.4187 263.642576,0 0,50 -263.642576,0 z"
     id="rect4138-6" />
  <path
     style="fill:#00ceff;fill-opacity:1"
     d="m 17.65391,264.87891 263.64258,0 0,50.22145 -263.64258,0 z"
     id="rect4138-7" />
  <g
     style="font-style:normal;font-variant:normal;font-weight:normal;font-stretch:normal;font-size:45px;line-height:125%;font-family:AlYarmook;-inkscape-font-specification:AlYarmook;letter-spacing:0px;word-spacing:0px;fill:#000000;fill-opacity:1;stroke:none;stroke-width:1px;stroke-linecap:butt;stroke-linejoin:miter;stroke-opacity:1"
     id="text4173">
    <path
       d="m 69.559083,37.621079 -3.775,0 q -0.325,-2.475 -1.775,-3.8 -1.425,-1.35 -3.8,-1.35 -3.05,0 -4.8,2.5 -1.725,2.5 -1.725,6.9 0,4.175 1.775,6.575 1.775,2.4 4.875,2.4 4.775,0 5.75,-5.675 l 3.775,0 q -0.35,4.325 -2.9,6.725 -2.525,2.4 -6.75,2.4 -4.8,0 -7.625,-3.35 -2.825,-3.375 -2.825,-9.075 0,-5.85 2.85,-9.35 2.875,-3.5 7.65,-3.5 4.1,0 6.525,2.225 2.45,2.2 2.775,6.375 z"
       style=""
       id="path4470" />
    <path
       d="m 83.134083,29.021079 q 5.075,0 7.875,3.375 2.825,3.35 2.825,9.45 0,5.8 -2.85,9.125 -2.85,3.325 -7.8,3.325 -5.025,0 -7.85,-3.35 -2.825,-3.35 -2.825,-9.275 0,-5.925 2.825,-9.275 2.85,-3.375 7.8,-3.375 z m 4.975,5.925 q -1.775,-2.475 -4.925,-2.475 -3.15,0 -4.975,2.475 -1.8,2.475 -1.8,6.725 0,4.275 1.8,6.725 1.825,2.45 4.975,2.45 3.1,0 4.9,-2.425 1.825,-2.45 1.825,-6.6 0,-4.425 -1.8,-6.875 z"
       style="font-style:normal;font-variant:normal;font-weight:normal;font-stretch:normal;font-family:Hor;-inkscape-font-specification:Hor"
       id="path4472" />
    <path
       d="m 98.99502,29.696079 3.45,0 0,3.95 q 1.575,-2.475 3.375,-3.55 1.825,-1.075 4.475,-1.075 3.4,0 5.425,1.75 2.025,1.75 2.025,4.675 l 0,17.825 -3.725,0 0,-16.325 q 0,-2.15 -1.325,-3.4 -1.3,-1.25 -3.525,-1.25 -2.9,0 -4.65,2.175 -1.75,2.175 -1.75,5.775 l 0,13.025 -3.775,0 0,-23.575 z"
       style="font-style:normal;font-variant:normal;font-weight:normal;font-stretch:normal;font-family:Hor;-inkscape-font-specification:Hor"
       id="path4474" />
    <path
       d="m 126.30596,46.246079 q 0.1,0.775 0.275,1.375 0.175,0.575 0.575,1.225 0.4,0.65 0.975,1.05 0.6,0.4 1.6,0.675 1,0.275 2.325,0.275 2.45,0 3.975,-1 1.525,-1.025 1.525,-2.7 0,-1.275 -0.85,-2.025 -0.85,-0.775 -2.825,-1.275 l -3.475,-0.825 q -4.175,-1 -5.85,-2.525 -1.65,-1.525 -1.65,-4.275 0,-3.275 2.475,-5.225 2.475,-1.975 6.575,-1.975 4.1,0 6.3,1.875 2.225,1.875 2.25,5.375 l -3.95,0 q -0.15,-3.8 -4.7,-3.8 -2.3,0 -3.675,0.975 -1.35,0.975 -1.35,2.6 0,1.225 1.025,2.025 1.025,0.8 3.325,1.35 l 3.6,0.825 q 3.525,0.875 5.1,2.425 1.575,1.55 1.575,4.175 0,3.4 -2.65,5.425 -2.625,2.025 -7.075,2.025 -4.625,0 -6.95,-1.975 -2.325,-1.975 -2.45,-6.075 l 3.975,0 z"
       style="font-style:normal;font-variant:normal;font-weight:normal;font-stretch:normal;font-family:Hor;-inkscape-font-specification:Hor"
       id="path4476" />
    <path
       d="m 150.05596,20.446079 0,4.75 -3.775,0 0,-4.75 3.775,0 z m 0.025,9.25 0,23.575 -3.75,0 0,-23.575 3.75,0 z"
       style="font-style:normal;font-variant:normal;font-weight:normal;font-stretch:normal;font-family:Hor;-inkscape-font-specification:Hor"
       id="path4478" />
    <path
       d="m 164.37549,54.296079 q -4.15,0 -6.95,-3.4 -2.775,-3.4 -2.775,-9.025 0,-5.725 2.75,-9.275 2.775,-3.575 7.275,-3.575 4.425,0 7.2,4.1 l 0,-3.425 3.475,0 0,19.7 q 0,2.65 -0.25,4.575 -0.225,1.95 -0.9,3.75 -0.675,1.8 -1.825,2.9 -1.15,1.125 -3.075,1.775 -1.9,0.675 -4.525,0.675 -4.125,0 -6.625,-1.9 -2.475,-1.875 -2.75,-5.2 l 3.8,0 q 0.2,1.1 0.75,1.875 0.575,0.8 1.2,1.175 0.625,0.4 1.475,0.6 0.85,0.225 1.3,0.25 0.475,0.05 1,0.05 1.95,0 3.25,-0.575 1.325,-0.55 2.025,-1.725 0.725,-1.175 1,-2.675 0.3,-1.5 0.3,-3.65 l 0,-1.2 q -1.575,2.2 -3.275,3.2 -1.675,1 -3.85,1 z m 0.7,-21.825 q -3,0 -4.775,2.475 -1.75,2.475 -1.75,6.725 0,4.3 1.725,6.75 1.75,2.425 4.85,2.425 2.975,0 4.675,-2.4 1.7,-2.425 1.7,-6.625 0,-4.425 -1.7,-6.875 -1.7,-2.475 -4.725,-2.475 z"
       style="font-style:normal;font-variant:normal;font-weight:normal;font-stretch:normal;font-family:Hor;-inkscape-font-specification:Hor"
       id="path4480" />
    <path
       d="m 181.43643,29.696079 3.45,0 0,3.95 q 1.575,-2.475 3.375,-3.55 1.825,-1.075 4.475,-1.075 3.4,0 5.425,1.75 2.025,1.75 2.025,4.675 l 0,17.825 -3.725,0 0,-16.325 q 0,-2.15 -1.325,-3.4 -1.3,-1.25 -3.525,-1.25 -2.9,0 -4.65,2.175 -1.75,2.175 -1.75,5.775 l 0,13.025 -3.775,0 0,-23.575 z"
       style="font-style:normal;font-variant:normal;font-weight:normal;font-stretch:normal;font-family:Hor;-inkscape-font-specification:Hor"
       id="path4482" />
    <path
       d="m 226.34736,42.746079 -17.4,0 q 0.05,1.775 0.3,2.9 0.275,1.125 0.95,2.125 1.95,3.075 5.7,3.075 4.55,0 6.15,-4.725 l 3.8,0 q -0.725,3.825 -3.4,6 -2.65,2.175 -6.7,2.175 -4.975,0 -7.85,-3.325 -2.85,-3.35 -2.85,-9.15 0,-5.825 2.925,-9.3 2.95,-3.5 7.875,-3.5 3.3,0 5.825,1.65 2.55,1.65 3.725,4.55 0.95,2.55 0.95,7.525 z m -17.275,-3.075 13.2,0 q 0.05,-0.075 0.05,-0.25 0,-2.925 -1.875,-4.925 -1.875,-2.025 -4.65,-2.025 -2.85,0 -4.675,1.975 -1.825,1.95 -2.05,5.225 z"
       style="fill:#ffffff"
       id="path4484" />
    <path
       d="m 250.4583,20.446079 0,32.825 -3.3,0 0,-3.125 q -1.5,2.2 -3.3,3.175 -1.775,0.975 -4.225,0.975 -4.75,0 -7.5,-3.45 -2.75,-3.45 -2.75,-9.4 0,-5.65 2.75,-9.025 2.75,-3.4 7.35,-3.4 4.85,0 7.275,3.65 l 0,-12.225 3.7,0 z m -10.3,12.075 q -3.1,0 -4.975,2.525 -1.875,2.5 -1.875,6.625 0,4.125 1.875,6.65 1.9,2.5 5,2.5 2.975,0 4.775,-2.475 1.8,-2.5 1.8,-6.6 0,-4.225 -1.8,-6.725 -1.8,-2.5 -4.8,-2.5 z"
       style="fill:#ffffff"
       id="path4486" />
  </g>
  <flowRoot
     xml:space="preserve"
     id="flowRoot4177"
     style="font-style:normal;font-variant:normal;font-weight:normal;font-stretch:normal;font-size:45px;line-height:125%;font-family:Lato;-inkscape-font-specification:Lato;letter-spacing:0px;word-spacing:0px;fill:#000000;fill-opacity:1;stroke:none;stroke-width:1px;stroke-linecap:butt;stroke-linejoin:miter;stroke-opacity:1"
     transform="translate(1.8373702,102.51559)"><flowRegion
       id="flowRegion4179"><rect
         id="rect4181"
         width="26.948097"
         height="115.14187"
         x="-112.69204"
         y="-101.60554"
         style="font-style:normal;font-variant:normal;font-weight:normal;font-stretch:normal;font-family:Lato;-inkscape-font-specification:Lato" /></flowRegion><flowPara
       id="flowPara4183"></flowPara></flowRoot>  <g
     style="font-style:normal;font-variant:normal;font-weight:normal;font-stretch:normal;font-size:45px;line-height:125%;font-family:AlArabiya;-inkscape-font-specification:AlArabiya;letter-spacing:0px;word-spacing:0px;fill:#000000;fill-opacity:1;stroke:none;stroke-width:1px;stroke-linecap:butt;stroke-linejoin:miter;stroke-opacity:1"
     id="text4173-9">
    <path
       d="m 60.927899,121.48921 -3.775,0 q -0.325,-2.475 -1.775,-3.8 -1.425,-1.35 -3.8,-1.35 -3.05,0 -4.8,2.5 -1.725,2.5 -1.725,6.9 0,4.175 1.775,6.575 1.775,2.4 4.875,2.4 4.775,0 5.75,-5.675 l 3.775,0 q -0.35,4.325 -2.9,6.725 -2.525,2.4 -6.75,2.4 -4.8,0 -7.625,-3.35 -2.825,-3.375 -2.825,-9.075 0,-5.85 2.85,-9.35 2.875,-3.5 7.65,-3.5 4.1,0 6.525,2.225 2.45,2.2 2.775,6.375 z"
       style=""
       id="path4449" />
    <path
       d="m 74.502899,112.88921 q 5.075,0 7.875,3.375 2.825,3.35 2.825,9.45 0,5.8 -2.85,9.125 -2.85,3.325 -7.8,3.325 -5.025,0 -7.85,-3.35 -2.825,-3.35 -2.825,-9.275 0,-5.925 2.825,-9.275 2.85,-3.375 7.8,-3.375 z m 4.975,5.925 q -1.775,-2.475 -4.925,-2.475 -3.15,0 -4.975,2.475 -1.8,2.475 -1.8,6.725 0,4.275 1.8,6.725 1.825,2.45 4.975,2.45 3.1,0 4.9,-2.425 1.825,-2.45 1.825,-6.6 0,-4.425 -1.8,-6.875 z"
       style="font-style:normal;font-variant:normal;font-weight:normal;font-stretch:normal;font-family:Hor;-inkscape-font-specification:Hor"
       id="path4451" />
    <path
       d="m 90.363837,113.56421 3.45,0 0,3.95 q 1.575,-2.475 3.375,-3.55 1.825,-1.075 4.475003,-1.075 3.4,0 5.425,1.75 2.025,1.75 2.025,4.675 l 0,17.825 -3.725,0 0,-16.325 q 0,-2.15 -1.325,-3.4 -1.3,-1.25 -3.525,-1.25 -2.900003,0 -4.650003,2.175 -1.75,2.175 -1.75,5.775 l 0,13.025 -3.775,0 0,-23.575 z"
       style="font-style:normal;font-variant:normal;font-weight:normal;font-stretch:normal;font-family:Hor;-inkscape-font-specification:Hor"
       id="path4453" />
    <path
       d="m 117.67477,130.11421 q 0.1,0.775 0.275,1.375 0.175,0.575 0.575,1.225 0.4,0.65 0.975,1.05 0.6,0.4 1.6,0.675 1,0.275 2.325,0.275 2.45,0 3.975,-1 1.525,-1.025 1.525,-2.7 0,-1.275 -0.85,-2.025 -0.85,-0.775 -2.825,-1.275 l -3.475,-0.825 q -4.175,-1 -5.85,-2.525 -1.65,-1.525 -1.65,-4.275 0,-3.275 2.475,-5.225 2.475,-1.975 6.575,-1.975 4.1,0 6.3,1.875 2.225,1.875 2.25,5.375 l -3.95,0 q -0.15,-3.8 -4.7,-3.8 -2.3,0 -3.675,0.975 -1.35,0.975 -1.35,2.6 0,1.225 1.025,2.025 1.025,0.8 3.325,1.35 l 3.6,0.825 q 3.525,0.875 5.1,2.425 1.575,1.55 1.575,4.175 0,3.4 -2.65,5.425 -2.625,2.025 -7.075,2.025 -4.625,0 -6.95,-1.975 -2.325,-1.975 -2.45,-6.075 l 3.975,0 z"
       style="font-style:normal;font-variant:normal;font-weight:normal;font-stretch:normal;font-family:Hor;-inkscape-font-specification:Hor"
       id="path4455" />
    <path
       d="m 141.42477,104.31421 0,4.75 -3.775,0 0,-4.75 3.775,0 z m 0.025,9.25 0,23.575 -3.75,0 0,-23.575 3.75,0 z"
       style="font-style:normal;font-variant:normal;font-weight:normal;font-stretch:normal;font-family:Hor;-inkscape-font-specification:Hor"
       id="path4457" />
    <path
       d="m 155.74431,138.16421 q -4.15,0 -6.95,-3.4 -2.775,-3.4 -2.775,-9.025 0,-5.725 2.75,-9.275 2.775,-3.575 7.275,-3.575 4.425,0 7.2,4.1 l 0,-3.425 3.475,0 0,19.7 q 0,2.65 -0.25,4.575 -0.225,1.95 -0.9,3.75 -0.675,1.8 -1.825,2.9 -1.15,1.125 -3.075,1.775 -1.9,0.675 -4.525,0.675 -4.125,0 -6.625,-1.9 -2.475,-1.875 -2.75,-5.2 l 3.8,0 q 0.2,1.1 0.75,1.875 0.575,0.8 1.2,1.175 0.625,0.4 1.475,0.6 0.85,0.225 1.3,0.25 0.475,0.05 1,0.05 1.95,0 3.25,-0.575 1.325,-0.55 2.025,-1.725 0.725,-1.175 1,-2.675 0.3,-1.5 0.3,-3.65 l 0,-1.2 q -1.575,2.2 -3.275,3.2 -1.675,1 -3.85,1 z m 0.7,-21.825 q -3,0 -4.775,2.475 -1.75,2.475 -1.75,6.725 0,4.3 1.725,6.75 1.75,2.425 4.85,2.425 2.975,0 4.675,-2.4 1.7,-2.425 1.7,-6.625 0,-4.425 -1.7,-6.875 -1.7,-2.475 -4.725,-2.475 z"
       style="font-style:normal;font-variant:normal;font-weight:normal;font-stretch:normal;font-family:Hor;-inkscape-font-specification:Hor"
       id="path4459" />
    <path
       d="m 172.80524,113.56421 3.45,0 0,3.95 q 1.575,-2.475 3.375,-3.55 1.825,-1.075 4.475,-1.075 3.4,0 5.425,1.75 2.025,1.75 2.025,4.675 l 0,17.825 -3.725,0 0,-16.325 q 0,-2.15 -1.325,-3.4 -1.3,-1.25 -3.525,-1.25 -2.9,0 -4.65,2.175 -1.75,2.175 -1.75,5.775 l 0,13.025 -3.775,0 0,-23.575 z"
       style="font-style:normal;font-variant:normal;font-weight:normal;font-stretch:normal;font-family:Hor;-inkscape-font-specification:Hor"
       id="path4461" />
    <path
       d="m 201.36618,104.31421 0,4.75 -3.775,0 0,-4.75 3.775,0 z m 0.025,9.25 0,23.575 -3.75,0 0,-23.575 3.75,0 z"
       style="fill:#ffffff"
       id="path4463" />
    <path
       d="m 207.78571,113.56421 3.45,0 0,3.95 q 1.575,-2.475 3.375,-3.55 1.825,-1.075 4.475,-1.075 3.4,0 5.425,1.75 2.025,1.75 2.025,4.675 l 0,17.825 -3.725,0 0,-16.325 q 0,-2.15 -1.325,-3.4 -1.3,-1.25 -3.525,-1.25 -2.9,0 -4.65,2.175 -1.75,2.175 -1.75,5.775 l 0,13.025 -3.775,0 0,-23.575 z"
       style="fill:#ffffff"
       id="path4465" />
    <path
       d="m 240.64665,138.16421 q -4.15,0 -6.95,-3.4 -2.775,-3.4 -2.775,-9.025 0,-5.725 2.75,-9.275 2.775,-3.575 7.275,-3.575 4.425,0 7.2,4.1 l 0,-3.425 3.475,0 0,19.7 q 0,2.65 -0.25,4.575 -0.225,1.95 -0.9,3.75 -0.675,1.8 -1.825,2.9 -1.15,1.125 -3.075,1.775 -1.9,0.675 -4.525,0.675 -4.125,0 -6.625,-1.9 -2.475,-1.875 -2.75,-5.2 l 3.8,0 q 0.2,1.1 0.75,1.875 0.575,0.8 1.2,1.175 0.625,0.4 1.475,0.6 0.85,0.225 1.3,0.25 0.475,0.05 1,0.05 1.95,0 3.25,-0.575 1.325,-0.55 2.025,-1.725 0.725,-1.175 1,-2.675 0.3,-1.5 0.3,-3.65 l 0,-1.2 q -1.575,2.2 -3.275,3.2 -1.675,1 -3.85,1 z m 0.7,-21.825 q -3,0 -4.775,2.475 -1.75,2.475 -1.75,6.725 0,4.3 1.725,6.75 1.75,2.425 4.85,2.425 2.975,0 4.675,-2.4 1.7,-2.425 1.7,-6.625 0,-4.425 -1.7,-6.875 -1.7,-2.475 -4.725,-2.475 z"
       style="fill:#ffffff"
       id="path4467" />
  </g>
  <g
     style="font-style:normal;font-variant:normal;font-weight:normal;font-stretch:normal;font-size:45px;line-height:125%;font-family:AlYarmook;-inkscape-font-specification:AlYarmook;letter-spacing:0px;word-spacing:0px;fill:#000000;fill-opacity:1;stroke:none;stroke-width:1px;stroke-linecap:butt;stroke-linejoin:miter;stroke-opacity:1"
     id="text4173-9-8">
    <path
       d="m 73.179425,204.18113 -3.775,0 q -0.325,-2.475 -1.775,-3.8 -1.425,-1.35 -3.8,-1.35 -3.05,0 -4.8,2.5 -1.725,2.5 -1.725,6.9 0,4.175 1.775,6.575 1.775,2.4 4.875,2.4 4.775,0 5.75,-5.675 l 3.775,0 q -0.35,4.325 -2.9,6.725 -2.525,2.4 -6.75,2.4 -4.8,0 -7.625,-3.35 -2.825,-3.375 -2.825,-9.075 0,-5.85 2.85,-9.35 2.875,-3.5 7.65,-3.5 4.1,0 6.525,2.225 2.45,2.2 2.775,6.375 z"
       style=""
       id="path4430" />
    <path
       d="m 86.754425,195.58113 q 5.075,0 7.875,3.375 2.825,3.35 2.825,9.45 0,5.8 -2.85,9.125 -2.85,3.325 -7.8,3.325 -5.025,0 -7.85,-3.35 -2.825,-3.35 -2.825,-9.275 0,-5.925 2.825,-9.275 2.85,-3.375 7.8,-3.375 z m 4.975,5.925 q -1.775,-2.475 -4.925,-2.475 -3.15,0 -4.975,2.475 -1.8,2.475 -1.8,6.725 0,4.275 1.8,6.725 1.825,2.45 4.975,2.45 3.1,0 4.9,-2.425 1.825,-2.45 1.825,-6.6 0,-4.425 -1.8,-6.875 z"
       style="font-style:normal;font-variant:normal;font-weight:normal;font-stretch:normal;font-family:Hor;-inkscape-font-specification:Hor"
       id="path4432" />
    <path
       d="m 102.61536,196.25613 3.45,0 0,3.95 q 1.575,-2.475 3.375,-3.55 1.825,-1.075 4.475,-1.075 3.4,0 5.425,1.75 2.025,1.75 2.025,4.675 l 0,17.825 -3.725,0 0,-16.325 q 0,-2.15 -1.325,-3.4 -1.3,-1.25 -3.525,-1.25 -2.9,0 -4.65,2.175 -1.75,2.175 -1.75,5.775 l 0,13.025 -3.775,0 0,-23.575 z"
       style="font-style:normal;font-variant:normal;font-weight:normal;font-stretch:normal;font-family:Hor;-inkscape-font-specification:Hor"
       id="path4434" />
    <path
       d="m 129.9263,212.80613 q 0.1,0.775 0.275,1.375 0.175,0.575 0.575,1.225 0.4,0.65 0.975,1.05 0.6,0.4 1.6,0.675 1,0.275 2.325,0.275 2.45,0 3.975,-1 1.525,-1.025 1.525,-2.7 0,-1.275 -0.85,-2.025 -0.85,-0.775 -2.825,-1.275 l -3.475,-0.825 q -4.175,-1 -5.85,-2.525 -1.65,-1.525 -1.65,-4.275 0,-3.275 2.475,-5.225 2.475,-1.975 6.575,-1.975 4.1,0 6.3,1.875 2.225,1.875 2.25,5.375 l -3.95,0 q -0.15,-3.8 -4.7,-3.8 -2.3,0 -3.675,0.975 -1.35,0.975 -1.35,2.6 0,1.225 1.025,2.025 1.025,0.8 3.325,1.35 l 3.6,0.825 q 3.525,0.875 5.1,2.425 1.575,1.55 1.575,4.175 0,3.4 -2.65,5.425 -2.625,2.025 -7.075,2.025 -4.625,0 -6.95,-1.975 -2.325,-1.975 -2.45,-6.075 l 3.975,0 z"
       style="font-style:normal;font-variant:normal;font-weight:normal;font-stretch:normal;font-family:Hor;-inkscape-font-specification:Hor"
       id="path4436" />
    <path
       d="m 153.6763,187.00613 0,4.75 -3.775,0 0,-4.75 3.775,0 z m 0.025,9.25 0,23.575 -3.75,0 0,-23.575 3.75,0 z"
       style="font-style:normal;font-variant:normal;font-weight:normal;font-stretch:normal;font-family:Hor;-inkscape-font-specification:Hor"
       id="path4438" />
    <path
       d="m 167.99583,220.85613 q -4.15,0 -6.95,-3.4 -2.775,-3.4 -2.775,-9.025 0,-5.725 2.75,-9.275 2.775,-3.575 7.275,-3.575 4.425,0 7.2,4.1 l 0,-3.425 3.475,0 0,19.7 q 0,2.65 -0.25,4.575 -0.225,1.95 -0.9,3.75 -0.675,1.8 -1.825,2.9 -1.15,1.125 -3.075,1.775 -1.9,0.675 -4.525,0.675 -4.125,0 -6.625,-1.9 -2.475,-1.875 -2.75,-5.2 l 3.8,0 q 0.2,1.1 0.75,1.875 0.575,0.8 1.2,1.175 0.625,0.4 1.475,0.6 0.85,0.225 1.3,0.25 0.475,0.05 1,0.05 1.95,0 3.25,-0.575 1.325,-0.55 2.025,-1.725 0.725,-1.175 1,-2.675 0.3,-1.5 0.3,-3.65 l 0,-1.2 q -1.575,2.2 -3.275,3.2 -1.675,1 -3.85,1 z m 0.7,-21.825 q -3,0 -4.775,2.475 -1.75,2.475 -1.75,6.725 0,4.3 1.725,6.75 1.75,2.425 4.85,2.425 2.975,0 4.675,-2.4 1.7,-2.425 1.7,-6.625 0,-4.425 -1.7,-6.875 -1.7,-2.475 -4.725,-2.475 z"
       style="font-style:normal;font-variant:normal;font-weight:normal;font-stretch:normal;font-family:Hor;-inkscape-font-specification:Hor"
       id="path4440" />
    <path
       d="m 185.05677,196.25613 3.45,0 0,3.95 q 1.575,-2.475 3.375,-3.55 1.825,-1.075 4.475,-1.075 3.4,0 5.425,1.75 2.025,1.75 2.025,4.675 l 0,17.825 -3.725,0 0,-16.325 q 0,-2.15 -1.325,-3.4 -1.3,-1.25 -3.525,-1.25 -2.9,0 -4.65,2.175 -1.75,2.175 -1.75,5.775 l 0,13.025 -3.775,0 0,-23.575 z"
       style="font-style:normal;font-variant:normal;font-weight:normal;font-stretch:normal;font-family:Hor;-inkscape-font-specification:Hor"
       id="path4442" />
    <path
       d="m 229.96771,209.30613 -17.4,0 q 0.05,1.775 0.3,2.9 0.275,1.125 0.95,2.125 1.95,3.075 5.7,3.075 4.55,0 6.15,-4.725 l 3.8,0 q -0.725,3.825 -3.4,6 -2.65,2.175 -6.7,2.175 -4.975,0 -7.85,-3.325 -2.85,-3.35 -2.85,-9.15 0,-5.825 2.925,-9.3 2.95,-3.5 7.875,-3.5 3.3,0 5.825,1.65 2.55,1.65 3.725,4.55 0.95,2.55 0.95,7.525 z m -17.275,-3.075 13.2,0 q 0.05,-0.075 0.05,-0.25 0,-2.925 -1.875,-4.925 -1.875,-2.025 -4.65,-2.025 -2.85,0 -4.675,1.975 -1.825,1.95 -2.05,5.225 z"
       style="fill:#ffffff"
       id="path4444" />
    <path
       d="m 246.27864,199.55613 q -1.85,0.025 -3.125,0.375 -1.275,0.325 -2.35,1.175 -1.05,0.85 -1.575,2.475 -0.5,1.6 -0.5,4 l 0,12.25 -3.775,0 0,-23.575 3.45,0 0,4.25 q 1.625,-2.625 3.1,-3.775 1.5,-1.15 3.35,-1.15 0.35,0 1.425,0.125 l 0,3.85 z"
       style="fill:#ffffff"
       id="path4446" />
  </g>
  <g
     style="font-style:normal;font-variant:normal;font-weight:normal;font-stretch:normal;font-size:45px;line-height:125%;font-family:AlYarmook;-inkscape-font-specification:AlYarmook;letter-spacing:0px;word-spacing:0px;fill:#000000;fill-opacity:1;stroke:none;stroke-width:1px;stroke-linecap:butt;stroke-linejoin:miter;stroke-opacity:1"
     id="text4173-9-8-2">
    <path
       d="m 42.167001,285.02543 -3.775,0 q -0.325,-2.475 -1.775,-3.8 -1.425,-1.35 -3.8,-1.35 -3.05,0 -4.8,2.5 -1.725,2.5 -1.725,6.9 0,4.175 1.775,6.575 1.775,2.4 4.875,2.4 4.775,0 5.75,-5.675 l 3.775,0 q -0.35,4.325 -2.9,6.725 -2.525,2.4 -6.75,2.4 -4.8,0 -7.625,-3.35 -2.825,-3.375 -2.825,-9.075 0,-5.85 2.85,-9.35 2.875,-3.5 7.65,-3.5 4.1,0 6.525,2.225 2.45,2.2 2.775,6.375 z"
       style=""
       id="path4407" />
    <path
       d="m 55.742001,276.42543 q 5.075,0 7.875,3.375 2.825,3.35 2.825,9.45 0,5.8 -2.85,9.125 -2.85,3.325 -7.8,3.325 -5.025,0 -7.85,-3.35 -2.825,-3.35 -2.825,-9.275 0,-5.925 2.825,-9.275 2.85,-3.375 7.8,-3.375 z m 4.975,5.925 q -1.775,-2.475 -4.925,-2.475 -3.15,0 -4.975,2.475 -1.8,2.475 -1.8,6.725 0,4.275 1.8,6.725 1.825,2.45 4.975,2.45 3.1,0 4.9,-2.425 1.825,-2.45 1.825,-6.6 0,-4.425 -1.8,-6.875 z"
       style="font-style:normal;font-variant:normal;font-weight:normal;font-stretch:normal;font-family:Hor;-inkscape-font-specification:Hor"
       id="path4409" />
    <path
       d="m 71.602938,277.10043 3.45,0 0,3.95 q 1.575,-2.475 3.375,-3.55 1.825,-1.075 4.475,-1.075 3.4,0 5.425,1.75 2.025,1.75 2.025,4.675 l 0,17.825 -3.725,0 0,-16.325 q 0,-2.15 -1.325,-3.4 -1.3,-1.25 -3.525,-1.25 -2.9,0 -4.65,2.175 -1.75,2.175 -1.75,5.775 l 0,13.025 -3.775,0 0,-23.575 z"
       style="font-style:normal;font-variant:normal;font-weight:normal;font-stretch:normal;font-family:Hor;-inkscape-font-specification:Hor"
       id="path4411" />
    <path
       d="m 98.913876,293.65043 q 0.1,0.775 0.275,1.375 0.175,0.575 0.575,1.225 0.400004,0.65 0.975004,1.05 0.6,0.4 1.6,0.675 1,0.275 2.325,0.275 2.45,0 3.975,-1 1.525,-1.025 1.525,-2.7 0,-1.275 -0.85,-2.025 -0.85,-0.775 -2.825,-1.275 l -3.475,-0.825 q -4.175004,-1 -5.850004,-2.525 -1.65,-1.525 -1.65,-4.275 0,-3.275 2.475,-5.225 2.475004,-1.975 6.575004,-1.975 4.1,0 6.3,1.875 2.225,1.875 2.25,5.375 l -3.95,0 q -0.15,-3.8 -4.7,-3.8 -2.3,0 -3.675,0.975 -1.350004,0.975 -1.350004,2.6 0,1.225 1.025004,2.025 1.025,0.8 3.325,1.35 l 3.6,0.825 q 3.525,0.875 5.1,2.425 1.575,1.55 1.575,4.175 0,3.4 -2.65,5.425 -2.625,2.025 -7.075,2.025 -4.625004,0 -6.950004,-1.975 -2.325,-1.975 -2.45,-6.075 l 3.975,0 z"
       style="font-style:normal;font-variant:normal;font-weight:normal;font-stretch:normal;font-family:Hor;-inkscape-font-specification:Hor"
       id="path4413" />
    <path
       d="m 122.66388,267.85043 0,4.75 -3.775,0 0,-4.75 3.775,0 z m 0.025,9.25 0,23.575 -3.75,0 0,-23.575 3.75,0 z"
       style="font-style:normal;font-variant:normal;font-weight:normal;font-stretch:normal;font-family:Hor;-inkscape-font-specification:Hor"
       id="path4415" />
    <path
       d="m 136.98341,301.70043 q -4.15,0 -6.95,-3.4 -2.775,-3.4 -2.775,-9.025 0,-5.725 2.75,-9.275 2.775,-3.575 7.275,-3.575 4.425,0 7.2,4.1 l 0,-3.425 3.475,0 0,19.7 q 0,2.65 -0.25,4.575 -0.225,1.95 -0.9,3.75 -0.675,1.8 -1.825,2.9 -1.15,1.125 -3.075,1.775 -1.9,0.675 -4.525,0.675 -4.125,0 -6.625,-1.9 -2.475,-1.875 -2.75,-5.2 l 3.8,0 q 0.2,1.1 0.75,1.875 0.575,0.8 1.2,1.175 0.625,0.4 1.475,0.6 0.85,0.225 1.3,0.25 0.475,0.05 1,0.05 1.95,0 3.25,-0.575 1.325,-0.55 2.025,-1.725 0.725,-1.175 1,-2.675 0.3,-1.5 0.3,-3.65 l 0,-1.2 q -1.575,2.2 -3.275,3.2 -1.675,1 -3.85,1 z m 0.7,-21.825 q -3,0 -4.775,2.475 -1.75,2.475 -1.75,6.725 0,4.3 1.725,6.75 1.75,2.425 4.85,2.425 2.975,0 4.675,-2.4 1.7,-2.425 1.7,-6.625 0,-4.425 -1.7,-6.875 -1.7,-2.475 -4.725,-2.475 z"
       style="font-style:normal;font-variant:normal;font-weight:normal;font-stretch:normal;font-family:Hor;-inkscape-font-specification:Hor"
       id="path4417" />
    <path
       d="m 154.04434,277.10043 3.45,0 0,3.95 q 1.575,-2.475 3.375,-3.55 1.825,-1.075 4.475,-1.075 3.4,0 5.425,1.75 2.025,1.75 2.025,4.675 l 0,17.825 -3.725,0 0,-16.325 q 0,-2.15 -1.325,-3.4 -1.3,-1.25 -3.525,-1.25 -2.9,0 -4.65,2.175 -1.75,2.175 -1.75,5.775 l 0,13.025 -3.775,0 0,-23.575 z"
       style="font-style:normal;font-variant:normal;font-weight:normal;font-stretch:normal;font-family:Hor;-inkscape-font-specification:Hor"
       id="path4419" />
    <path
       d="m 179.00528,277.10043 3.45,0 0,3.325 q 1.55,-2.15 3.225,-3.075 1.675,-0.925 4.025,-0.925 2.3,0 3.8,0.875 1.5,0.85 2.575,2.725 1.625,-2 3.25,-2.8 1.625,-0.8 3.975,-0.8 3.3,0 5.075,1.7 1.775,1.7 1.775,4.85 l 0,17.7 -3.8,0 0,-16.25 q 0,-2.225 -1.15,-3.475 -1.15,-1.25 -3.2,-1.25 -2.3,0 -3.925,1.8 -1.625,1.8 -1.625,4.35 l 0,14.825 -3.775,0 0,-16.25 q 0,-2.25 -1.15,-3.475 -1.125,-1.25 -3.2,-1.25 -2.3,0 -3.925,1.8 -1.625,1.8 -1.625,4.35 l 0,14.825 -3.775,0 0,-23.575 z"
       style="fill:#ffffff"
       id="path4421" />
    <path
       d="m 236.39669,290.15043 -17.4,0 q 0.05,1.775 0.3,2.9 0.275,1.125 0.95,2.125 1.95,3.075 5.7,3.075 4.55,0 6.15,-4.725 l 3.8,0 q -0.725,3.825 -3.4,6 -2.65,2.175 -6.7,2.175 -4.975,0 -7.85,-3.325 -2.85,-3.35 -2.85,-9.15 0,-5.825 2.925,-9.3 2.95,-3.5 7.875,-3.5 3.3,0 5.825,1.65 2.55,1.65 3.725,4.55 0.95,2.55 0.95,7.525 z m -17.275,-3.075 13.2,0 q 0.05,-0.075 0.05,-0.25 0,-2.925 -1.875,-4.925 -1.875,-2.025 -4.65,-2.025 -2.85,0 -4.675,1.975 -1.825,1.95 -2.05,5.225 z"
       style="fill:#ffffff"
       id="path4423" />
    <path
       d="m 241.40763,277.10043 3.45,0 0,3.95 q 1.575,-2.475 3.375,-3.55 1.825,-1.075 4.475,-1.075 3.4,0 5.425,1.75 2.025,1.75 2.025,4.675 l 0,17.825 -3.725,0 0,-16.325 q 0,-2.15 -1.325,-3.4 -1.3,-1.25 -3.525,-1.25 -2.9,0 -4.65,2.175 -1.75,2.175 -1.75,5.775 l 0,13.025 -3.775,0 0,-23.575 z"
       style="fill:#ffffff"
       id="path4425" />
    <path
       d="m 274.64356,277.10043 0,3.05 -3.875,0 0,16.15 q 0,1.25 0.425,1.7 0.425,0.425 1.65,0.425 1.225,0 1.8,-0.175 l 0,3.15 q -1.675,0.3 -3.05,0.3 -2.2,0 -3.375,-0.975 -1.15,-0.95 -1.15,-2.75 l 0,-17.825 -3.225,0 0,-3.05 3.225,0 0,-6.475 3.7,0 0,6.475 3.875,0 z"
       style="fill:#ffffff"
       id="path4427" />
  </g>
  <g
     transform="matrix(2.7937886,0.80771746,-0.80771746,2.7937886,328.23606,15.012534)"
     id="Arrow_Dotted_Right">
    <path
       style="clip-rule:evenodd;fill:#121313;fill-rule:evenodd"
       inkscape:connector-curvature="0"
       d="m 23.091,8.57 c 0.147,-0.366 -0.056,0.134 0,0 l 0,0 z"
       id="path4" />
    <path
       style="clip-rule:evenodd;fill:#121313;fill-rule:evenodd"
       inkscape:connector-curvature="0"
       d="M 31.714,15.283 24.725,8.254 C 24.231,7.736 23.356,7.91 23.091,8.569 23.035,8.703 23.012,8.845 23.016,8.988 l 0,13.98 c -0.024,0.887 1.07,1.38 1.702,0.742 l 6.996,-6.999 c 0.381,-0.385 0.381,-1.042 0,-1.428 z M 25,20.559 25,11.441 29.595,15.997 25,20.559 Z"
       id="path6" />
    <path
       style="clip-rule:evenodd;fill:#121313;fill-rule:evenodd"
       inkscape:connector-curvature="0"
       d="m 19,13 c -1.657,0 -3,1.343 -3,3 0,1.657 1.343,3 3,3 1.657,0 3,-1.343 3,-3 0,-1.657 -1.343,-3 -3,-3 z m 0,4 c -0.552,0 -1,-0.448 -1,-1 0,-0.552 0.448,-1 1,-1 0.552,0 1,0.448 1,1 0,0.552 -0.448,1 -1,1 z"
       id="path8" />
    <path
       style="clip-rule:evenodd;fill:#121313;fill-rule:evenodd"
       inkscape:connector-curvature="0"
       d="m 11,13 c -1.657,0 -3,1.343 -3,3 0,1.657 1.343,3 3,3 1.657,0 3,-1.343 3,-3 0,-1.657 -1.343,-3 -3,-3 z m 0,4 c -0.552,0 -1,-0.448 -1,-1 0,-0.552 0.448,-1 1,-1 0.552,0 1,0.448 1,1 0,0.552 -0.448,1 -1,1 z"
       id="path10" />
    <path
       style="clip-rule:evenodd;fill:#121313;fill-rule:evenodd"
       inkscape:connector-curvature="0"
       d="m 3,13 c -1.657,0 -3,1.343 -3,3 0,1.657 1.343,3 3,3 1.657,0 3,-1.343 3,-3 0,-1.657 -1.343,-3 -3,-3 z m 0,4 c -0.552,0 -1,-0.448 -1,-1 0,-0.552 0.448,-1 1,-1 0.552,0 1,0.448 1,1 0,0.552 -0.448,1 -1,1 z"
       id="path12" />
  </g>
  <g
     transform="matrix(2.6561581,-1.1842661,1.1842661,2.6561581,300.47982,238.55147)"
     id="Arrow_Dotted_Right-9">
    <path
       style="clip-rule:evenodd;fill:#121313;fill-rule:evenodd"
       inkscape:connector-curvature="0"
       d="m 23.091,8.57 c 0.147,-0.366 -0.056,0.134 0,0 l 0,0 z"
       id="path4-4" />
    <path
       style="clip-rule:evenodd;fill:#121313;fill-rule:evenodd"
       inkscape:connector-curvature="0"
       d="M 31.714,15.283 24.725,8.254 C 24.231,7.736 23.356,7.91 23.091,8.569 23.035,8.703 23.012,8.845 23.016,8.988 l 0,13.98 c -0.024,0.887 1.07,1.38 1.702,0.742 l 6.996,-6.999 c 0.381,-0.385 0.381,-1.042 0,-1.428 z M 25,20.559 25,11.441 29.595,15.997 25,20.559 Z"
       id="path6-4" />
    <path
       style="clip-rule:evenodd;fill:#121313;fill-rule:evenodd"
       inkscape:connector-curvature="0"
       d="m 19,13 c -1.657,0 -3,1.343 -3,3 0,1.657 1.343,3 3,3 1.657,0 3,-1.343 3,-3 0,-1.657 -1.343,-3 -3,-3 z m 0,4 c -0.552,0 -1,-0.448 -1,-1 0,-0.552 0.448,-1 1,-1 0.552,0 1,0.448 1,1 0,0.552 -0.448,1 -1,1 z"
       id="path8-6" />
    <path
       style="clip-rule:evenodd;fill:#121313;fill-rule:evenodd"
       inkscape:connector-curvature="0"
       d="m 11,13 c -1.657,0 -3,1.343 -3,3 0,1.657 1.343,3 3,3 1.657,0 3,-1.343 3,-3 0,-1.657 -1.343,-3 -3,-3 z m 0,4 c -0.552,0 -1,-0.448 -1,-1 0,-0.552 0.448,-1 1,-1 0.552,0 1,0.448 1,1 0,0.552 -0.448,1 -1,1 z"
       id="path10-0" />
    <path
       style="clip-rule:evenodd;fill:#121313;fill-rule:evenodd"
       inkscape:connector-curvature="0"
       d="m 3,13 c -1.657,0 -3,1.343 -3,3 0,1.657 1.343,3 3,3 1.657,0 3,-1.343 3,-3 0,-1.657 -1.343,-3 -3,-3 z m 0,4 c -0.552,0 -1,-0.448 -1,-1 0,-0.552 0.448,-1 1,-1 0.552,0 1,0.448 1,1 0,0.552 -0.448,1 -1,1 z"
       id="path12-7" />
  </g>
  <g
     transform="matrix(2.9077324,-0.05248468,0.05248468,2.9077324,297.02081,123.16421)"
     id="Arrow_Dotted_Right-4">
    <path
       style="clip-rule:evenodd;fill:#121313;fill-rule:evenodd"
       inkscape:connector-curvature="0"
       d="m 23.091,8.57 c 0.147,-0.366 -0.056,0.134 0,0 l 0,0 z"
       id="path4-3" />
    <path
       style="clip-rule:evenodd;fill:#121313;fill-rule:evenodd"
       inkscape:connector-curvature="0"
       d="M 31.714,15.283 24.725,8.254 C 24.231,7.736 23.356,7.91 23.091,8.569 23.035,8.703 23.012,8.845 23.016,8.988 l 0,13.98 c -0.024,0.887 1.07,1.38 1.702,0.742 l 6.996,-6.999 c 0.381,-0.385 0.381,-1.042 0,-1.428 z M 25,20.559 25,11.441 29.595,15.997 25,20.559 Z"
       id="path6-7" />
    <path
       style="clip-rule:evenodd;fill:#121313;fill-rule:evenodd"
       inkscape:connector-curvature="0"
       d="m 19,13 c -1.657,0 -3,1.343 -3,3 0,1.657 1.343,3 3,3 1.657,0 3,-1.343 3,-3 0,-1.657 -1.343,-3 -3,-3 z m 0,4 c -0.552,0 -1,-0.448 -1,-1 0,-0.552 0.448,-1 1,-1 0.552,0 1,0.448 1,1 0,0.552 -0.448,1 -1,1 z"
       id="path8-9" />
    <path
       style="clip-rule:evenodd;fill:#121313;fill-rule:evenodd"
       inkscape:connector-curvature="0"
       d="m 11,13 c -1.657,0 -3,1.343 -3,3 0,1.657 1.343,3 3,3 1.657,0 3,-1.343 3,-3 0,-1.657 -1.343,-3 -3,-3 z m 0,4 c -0.552,0 -1,-0.448 -1,-1 0,-0.552 0.448,-1 1,-1 0.552,0 1,0.448 1,1 0,0.552 -0.448,1 -1,1 z"
       id="path10-00" />
    <path
       style="clip-rule:evenodd;fill:#121313;fill-rule:evenodd"
       inkscape:connector-curvature="0"
       d="m 3,13 c -1.657,0 -3,1.343 -3,3 0,1.657 1.343,3 3,3 1.657,0 3,-1.343 3,-3 0,-1.657 -1.343,-3 -3,-3 z m 0,4 c -0.552,0 -1,-0.448 -1,-1 0,-0.552 0.448,-1 1,-1 0.552,0 1,0.448 1,1 0,0.552 -0.448,1 -1,1 z"
       id="path12-2" />
  </g>
  <flowRoot
     xml:space="preserve"
     id="flowRoot4336"
     style="font-style:normal;font-weight:normal;font-size:45px;line-height:125%;font-family:sans-serif;letter-spacing:0px;word-spacing:0px;fill:#000000;fill-opacity:1;stroke:none;stroke-width:1px;stroke-linecap:butt;stroke-linejoin:miter;stroke-opacity:1"
     transform="translate(1.8373702,102.51559)"><flowRegion
       id="flowRegion4338"><rect
         id="rect4340"
         width="300.10382"
         height="75.332176"
         x="-25.723183"
         y="-100.38062" /></flowRegion><flowPara
       id="flowPara4342"></flowPara></flowRoot>  <path
     style="fill:#00ceff;fill-opacity:1"
     d="m 427.35175,141.88583 163.81213,0 0,50 -163.81213,0 z"
     id="rect4138-2" />
  <g
     style="font-style:normal;font-variant:normal;font-weight:normal;font-stretch:normal;font-size:45px;line-height:125%;font-family:AlYarmook;-inkscape-font-specification:AlYarmook;letter-spacing:0px;word-spacing:0px;fill:#000000;fill-opacity:1;stroke:none;stroke-width:1px;stroke-linecap:butt;stroke-linejoin:miter;stroke-opacity:1"
     id="text4173-6">
    <path
       d="m 455.26378,161.83907 -3.775,0 q -0.325,-2.475 -1.775,-3.8 -1.425,-1.35 -3.8,-1.35 -3.05,0 -4.8,2.5 -1.725,2.5 -1.725,6.9 0,4.175 1.775,6.575 1.775,2.4 4.875,2.4 4.775,0 5.75,-5.675 l 3.775,0 q -0.35,4.325 -2.9,6.725 -2.525,2.4 -6.75,2.4 -4.8,0 -7.625,-3.35 -2.825,-3.375 -2.825,-9.075 0,-5.85 2.85,-9.35 2.875,-3.5 7.65,-3.5 4.1,0 6.525,2.225 2.45,2.2 2.775,6.375 z"
       style=""
       id="path4391" />
    <path
       d="m 468.83878,153.23907 q 5.075,0 7.875,3.375 2.825,3.35 2.825,9.45 0,5.8 -2.85,9.125 -2.85,3.325 -7.8,3.325 -5.025,0 -7.85,-3.35 -2.825,-3.35 -2.825,-9.275 0,-5.925 2.825,-9.275 2.85,-3.375 7.8,-3.375 z m 4.975,5.925 q -1.775,-2.475 -4.925,-2.475 -3.15,0 -4.975,2.475 -1.8,2.475 -1.8,6.725 0,4.275 1.8,6.725 1.825,2.45 4.975,2.45 3.1,0 4.9,-2.425 1.825,-2.45 1.825,-6.6 0,-4.425 -1.8,-6.875 z"
       style="font-style:normal;font-variant:normal;font-weight:normal;font-stretch:normal;font-family:Hor;-inkscape-font-specification:Hor"
       id="path4393" />
    <path
       d="m 484.69971,153.91407 3.45,0 0,3.95 q 1.575,-2.475 3.375,-3.55 1.825,-1.075 4.475,-1.075 3.4,0 5.425,1.75 2.025,1.75 2.025,4.675 l 0,17.825 -3.725,0 0,-16.325 q 0,-2.15 -1.325,-3.4 -1.3,-1.25 -3.525,-1.25 -2.9,0 -4.65,2.175 -1.75,2.175 -1.75,5.775 l 0,13.025 -3.775,0 0,-23.575 z"
       style="font-style:normal;font-variant:normal;font-weight:normal;font-stretch:normal;font-family:Hor;-inkscape-font-specification:Hor"
       id="path4395" />
    <path
       d="m 512.01065,170.46407 q 0.1,0.775 0.275,1.375 0.175,0.575 0.575,1.225 0.4,0.65 0.975,1.05 0.6,0.4 1.6,0.675 1,0.275 2.325,0.275 2.45,0 3.975,-1 1.525,-1.025 1.525,-2.7 0,-1.275 -0.85,-2.025 -0.85,-0.775 -2.825,-1.275 l -3.475,-0.825 q -4.175,-1 -5.85,-2.525 -1.65,-1.525 -1.65,-4.275 0,-3.275 2.475,-5.225 2.475,-1.975 6.575,-1.975 4.1,0 6.3,1.875 2.225,1.875 2.25,5.375 l -3.95,0 q -0.15,-3.8 -4.7,-3.8 -2.3,0 -3.675,0.975 -1.35,0.975 -1.35,2.6 0,1.225 1.025,2.025 1.025,0.8 3.325,1.35 l 3.6,0.825 q 3.525,0.875 5.1,2.425 1.575,1.55 1.575,4.175 0,3.4 -2.65,5.425 -2.625,2.025 -7.075,2.025 -4.625,0 -6.95,-1.975 -2.325,-1.975 -2.45,-6.075 l 3.975,0 z"
       style="font-style:normal;font-variant:normal;font-weight:normal;font-stretch:normal;font-family:Hor;-inkscape-font-specification:Hor"
       id="path4397" />
    <path
       d="m 535.76065,144.66407 0,4.75 -3.775,0 0,-4.75 3.775,0 z m 0.025,9.25 0,23.575 -3.75,0 0,-23.575 3.75,0 z"
       style="font-style:normal;font-variant:normal;font-weight:normal;font-stretch:normal;font-family:Hor;-inkscape-font-specification:Hor"
       id="path4399" />
    <path
       d="m 550.08018,178.51407 q -4.15,0 -6.95,-3.4 -2.775,-3.4 -2.775,-9.025 0,-5.725 2.75,-9.275 2.775,-3.575 7.275,-3.575 4.425,0 7.2,4.1 l 0,-3.425 3.475,0 0,19.7 q 0,2.65 -0.25,4.575 -0.225,1.95 -0.9,3.75 -0.675,1.8 -1.825,2.9 -1.15,1.125 -3.075,1.775 -1.9,0.675 -4.525,0.675 -4.125,0 -6.625,-1.9 -2.475,-1.875 -2.75,-5.2 l 3.8,0 q 0.2,1.1 0.75,1.875 0.575,0.8 1.2,1.175 0.625,0.4 1.475,0.6 0.85,0.225 1.3,0.25 0.475,0.05 1,0.05 1.95,0 3.25,-0.575 1.325,-0.55 2.025,-1.725 0.725,-1.175 1,-2.675 0.3,-1.5 0.3,-3.65 l 0,-1.2 q -1.575,2.2 -3.275,3.2 -1.675,1 -3.85,1 z m 0.7,-21.825 q -3,0 -4.775,2.475 -1.75,2.475 -1.75,6.725 0,4.3 1.725,6.75 1.75,2.425 4.85,2.425 2.975,0 4.675,-2.4 1.7,-2.425 1.7,-6.625 0,-4.425 -1.7,-6.875 -1.7,-2.475 -4.725,-2.475 z"
       style="font-style:normal;font-variant:normal;font-weight:normal;font-stretch:normal;font-family:Hor;-inkscape-font-specification:Hor"
       id="path4401" />
    <path
       d="m 567.14112,153.91407 3.45,0 0,3.95 q 1.575,-2.475 3.375,-3.55 1.825,-1.075 4.475,-1.075 3.4,0 5.425,1.75 2.025,1.75 2.025,4.675 l 0,17.825 -3.725,0 0,-16.325 q 0,-2.15 -1.325,-3.4 -1.3,-1.25 -3.525,-1.25 -2.9,0 -4.65,2.175 -1.75,2.175 -1.75,5.775 l 0,13.025 -3.775,0 0,-23.575 z"
       style="font-style:normal;font-variant:normal;font-weight:normal;font-stretch:normal;font-family:Hor;-inkscape-font-specification:Hor"
       id="path4403" />
  </g>
</svg>
